HIERARCHY
ROOT Hips
{
	OFFSET 0.000000 0.000000 0.000000
	CHANNELS 6 Xposition Yposition Zposition Zrotation Yrotation Xrotation 
	JOINT LHipJoint
	{
		OFFSET 0.000000 0.000000 0.000000
		CHANNELS 3 Zrotation Yrotation Xrotation
		JOINT LeftUpLeg
		{
			OFFSET 1.363060 -1.794630 0.839290
			CHANNELS 3 Zrotation Yrotation Xrotation
			JOINT LeftLeg
			{
				OFFSET 2.448110 -6.726130 0.000000
				CHANNELS 3 Zrotation Yrotation Xrotation
				JOINT LeftFoot
				{
					OFFSET 2.562200 -7.039590 0.000000
					CHANNELS 3 Zrotation Yrotation Xrotation
					JOINT LeftToeBase
					{
						OFFSET 0.157640 -0.433110 2.322550
						CHANNELS 3 Zrotation Yrotation Xrotation
						End Site
						{
							OFFSET 0.000000 0.000000 0.000000
						}
					}
				}
			}
		}
	}
	JOINT RHipJoint
	{
		OFFSET 0.000000 0.000000 0.000000
		CHANNELS 3 Zrotation Yrotation Xrotation
		JOINT RightUpLeg
		{
			OFFSET -1.305520 -1.794630 0.839290
			CHANNELS 3 Zrotation Yrotation Xrotation
			JOINT RightLeg
			{
				OFFSET -2.542530 -6.985550 0.000000
				CHANNELS 3 Zrotation Yrotation Xrotation
				JOINT RightFoot
				{
					OFFSET -2.568260 -7.056230 0.000000
					CHANNELS 3 Zrotation Yrotation Xrotation
					JOINT RightToeBase
					{
						OFFSET -0.164730 -0.452590 2.363150
						CHANNELS 3 Zrotation Yrotation Xrotation
						End Site
						{
							OFFSET 0.000000 0.000000 0.000000
						}
					}
				}
			}
		}
	}
	JOINT LowerBack
	{
		OFFSET 0.000000 0.000000 0.000000
		CHANNELS 3 Zrotation Yrotation Xrotation
		JOINT Spine
		{
			OFFSET 0.028270 2.035590 -0.193380
			CHANNELS 3 Zrotation Yrotation Xrotation
			JOINT Spine1
			{
				OFFSET 0.056720 2.048850 -0.042750
				CHANNELS 3 Zrotation Yrotation Xrotation
				JOINT Neck
				{
					OFFSET 0.000000 0.000000 0.000000
					CHANNELS 3 Zrotation Yrotation Xrotation
					JOINT Neck1
					{
						OFFSET -0.054170 1.746240 0.172020
						CHANNELS 3 Zrotation Yrotation Xrotation
						JOINT Head
						{
							OFFSET 0.104070 1.761360 -0.123970
							CHANNELS 3 Zrotation Yrotation Xrotation
							End Site
							{
								OFFSET 0.000000 0.000000 0.000000
							}
						}
					}
				}
				JOINT LeftShoulder
				{
					OFFSET 0.000000 0.000000 0.000000
					CHANNELS 3 Zrotation Yrotation Xrotation
					JOINT LeftArm
					{
						OFFSET 3.362410 1.200890 -0.311210
						CHANNELS 3 Zrotation Yrotation Xrotation
						JOINT LeftForeArm
						{
							OFFSET 4.983000 -0.000000 -0.000000
							CHANNELS 3 Zrotation Yrotation Xrotation
							JOINT LeftHand
							{
								OFFSET 3.483560 -0.000000 -0.000000
								CHANNELS 3 Zrotation Yrotation Xrotation
								JOINT LeftFingerBase
								{
									OFFSET 0.000000 0.000000 0.000000
									CHANNELS 3 Zrotation Yrotation Xrotation
									JOINT LeftHandIndex1
									{
										OFFSET 0.715260 -0.000000 -0.000000
										CHANNELS 3 Zrotation Yrotation Xrotation
										End Site
										{
											OFFSET 0.000000 0.000000 0.000000
										}
									}
								}
								JOINT LThumb
								{
									OFFSET 0.000000 0.000000 0.000000
									CHANNELS 3 Zrotation Yrotation Xrotation
									End Site
									{
										OFFSET 0.000000 0.000000 0.000000
									}
								}
							}
						}
					}
				}
				JOINT RightShoulder
				{
					OFFSET 0.000000 0.000000 0.000000
					CHANNELS 3 Zrotation Yrotation Xrotation
					JOINT RightArm
					{
						OFFSET -3.136600 1.374050 -0.404650
						CHANNELS 3 Zrotation Yrotation Xrotation
						JOINT RightForeArm
						{
							OFFSET -5.241900 -0.000000 -0.000000
							CHANNELS 3 Zrotation Yrotation Xrotation
							JOINT RightHand
							{
								OFFSET -3.444170 -0.000000 -0.000000
								CHANNELS 3 Zrotation Yrotation Xrotation
								JOINT RightFingerBase
								{
									OFFSET 0.000000 0.000000 0.000000
									CHANNELS 3 Zrotation Yrotation Xrotation
									JOINT RightHandIndex1
									{
										OFFSET -0.622530 -0.000000 -0.000000
										CHANNELS 3 Zrotation Yrotation Xrotation
										End Site
										{
											OFFSET 0.000000 0.000000 0.000000
										}
									}
								}
								JOINT RThumb
								{
									OFFSET 0.000000 0.000000 0.000000
									CHANNELS 3 Zrotation Yrotation Xrotation
									End Site
									{
										OFFSET 0.000000 0.000000 0.000000
									}
								}
							}
						}
					}
				}
			}
		}
	}
}
MOTION
Frames: 12
Frame Time: 0.008333
5.616697 16.809109 17.750926 -4.255102 -3.236300 -0.750069 -5.693559 -3.094826 -0.001394 -0.746592 7.995995 -23.352157 7.601174 16.594729 50.531125 4.392408 -4.408741 0.939860 0.535900 -4.690600 -13.028200 6.534645 3.657349 -0.026860 8.741554 -6.029398 -23.990190 -8.127808 -17.436730 53.367937 -1.549366 -2.087963 -1.153757 -0.433600 4.225600 -11.712400 2.427053 0.684014 9.064732 1.367846 1.363997 -3.732951 3.198791 0.451674 -1.631904 -8.844178 -7.304439 -16.385685 5.755313 -8.085313 7.462068 3.563000 -3.906100 10.124600 0.441002 -8.165799 0.263804 -45.110039 -43.006193 4.709335 69.230196 -47.073068 -52.378086 0.683685 -2.258372 28.741048 -7.478991 8.309474 -1.594900 -7.125000 0.000000 0.000000 -30.318700 38.062400 5.840900 -0.077320 8.527573 -3.420976 28.157061 44.621859 1.342659 -57.195401 44.923901 -39.438608 -0.938160 2.655244 12.750877 9.164922 -4.952049 -1.379500 7.125000 0.000000 0.000000 30.503100 -35.648800 7.972100 
5.617571 16.808781 17.751800 -4.268069 -3.231977 -0.747952 -5.691591 -3.094000 -0.002722 -0.737126 7.993350 -23.351563 7.604360 16.596123 50.537570 4.391653 -4.406341 0.931406 0.536500 -4.693100 -13.035200 6.533875 3.657452 -0.025844 8.752500 -6.043801 -23.994896 -8.127917 -17.437012 53.369484 -1.555846 -2.075888 -1.153706 -0.433000 4.222600 -11.703900 2.431359 0.682427 9.063413 1.369331 1.362462 -3.732687 3.204675 0.450460 -1.632344 -8.842890 -7.306923 -16.376192 5.758940 -8.090639 7.464567 3.564500 -3.908300 10.124300 0.441757 -8.165129 0.262405 -45.107180 -43.015648 4.720584 69.229579 -47.070444 -52.373044 0.683611 -2.258824 28.739088 -7.491381 8.307491 -1.596800 -7.125000 0.000000 0.000000 -30.327700 38.060000 5.845100 -0.077082 8.526367 -3.418983 28.165350 44.622920 1.343696 -57.207675 44.927605 -39.451340 -0.937607 2.655024 12.759546 9.167359 -4.960996 -1.381400 7.125000 0.000000 0.000000 30.507700 -35.656100 7.967300 
5.618445 16.808672 17.752893 -4.279244 -3.228254 -0.746123 -5.690216 -3.093075 -0.003553 -0.729876 7.991920 -23.349723 7.606199 16.596978 50.540476 4.390941 -4.403926 0.924474 0.536600 -4.693600 -13.036700 6.533324 3.657264 -0.024665 8.760813 -6.059201 -23.998172 -8.126932 -17.436477 53.367283 -1.562309 -2.064224 -1.151299 -0.432600 4.220900 -11.699000 2.434385 0.680777 9.060777 1.370484 1.360727 -3.732127 3.210051 0.449234 -1.631244 -8.843711 -7.309848 -16.365782 5.763538 -8.096048 7.467773 3.567600 -3.910600 10.124400 0.442005 -8.163890 0.261231 -45.105008 -43.023180 4.732856 69.229169 -47.068883 -52.368672 0.683670 -2.259399 28.731553 -7.509649 8.306010 -1.600000 -7.125000 0.000000 0.000000 -30.341400 38.057700 5.850500 -0.077227 8.524774 -3.416718 28.174811 44.624323 1.347957 -57.218634 44.931103 -39.462043 -0.936953 2.655135 12.764144 9.172087 -4.974293 -1.384400 7.125000 0.000000 0.000000 30.515600 -35.667500 7.960100 
5.619538 16.808672 17.754095 -4.288313 -3.227410 -0.745162 -5.689509 -3.091913 -0.003578 -0.725303 7.992656 -23.346434 7.606749 16.597108 50.540460 4.389175 -4.398868 0.918057 0.536600 -4.693700 -13.037100 6.533191 3.656618 -0.023138 8.766082 -6.073385 -23.998466 -8.124945 -17.435412 53.361665 -1.569606 -2.051374 -1.147657 -0.432300 4.219100 -11.694000 2.436984 0.680409 9.056950 1.371089 1.360565 -3.731558 3.213147 0.448946 -1.629358 -8.843583 -7.312126 -16.355227 5.767837 -8.101172 7.471673 3.570600 -3.912800 10.124800 0.441857 -8.161721 0.260495 -45.107214 -43.028015 4.750083 69.232123 -47.069343 -52.367267 0.683770 -2.259938 28.720949 -7.532984 8.307406 -1.604400 -7.125000 0.000000 0.000000 -30.360100 38.057400 5.855200 -0.077251 8.522207 -3.413551 28.187559 44.624538 1.355719 -57.229650 44.934399 -39.472472 -0.936328 2.655180 12.764214 9.176787 -4.987237 -1.387500 7.125000 0.000000 0.000000 30.523300 -35.678700 7.953000 
5.620413 16.809109 17.756062 -4.293833 -3.226555 -0.751593 -5.690491 -3.088898 -0.000979 -0.722929 7.991983 -23.331587 7.605852 16.597101 50.537866 4.387293 -4.392963 0.907525 0.536300 -4.692400 -13.033300 6.533604 3.653817 -0.019465 8.766171 -6.089277 -23.987431 -8.122044 -17.433903 53.353069 -1.578019 -2.037087 -1.146321 -0.431900 4.217300 -11.688700 2.436314 0.680974 9.057609 1.371313 1.361477 -3.730879 3.217622 0.449268 -1.632987 -8.849894 -7.311116 -16.327754 5.778497 -8.101501 7.470802 3.581700 -3.912900 10.116900 0.439823 -8.157290 0.262217 -45.122545 -43.026685 4.780915 69.238199 -47.073204 -52.366860 0.683502 -2.259837 28.712850 -7.546089 8.310142 -1.607200 -7.125000 0.000000 0.000000 -30.370900 38.059000 5.856500 -0.077167 8.517801 -3.407019 28.207077 44.620807 1.371343 -57.234928 44.936283 -39.475796 -0.936037 2.654337 12.757483 9.173346 -4.986923 -1.386700 7.125000 0.000000 0.000000 30.520000 -35.678200 7.952200 
5.621505 16.809437 17.757920 -4.299397 -3.228222 -0.756277 -5.691787 -3.086352 0.001512 -0.721154 7.991111 -23.318236 7.604294 16.596733 50.533480 4.385041 -4.386294 0.900162 0.535700 -4.689800 -13.026000 6.534288 3.651391 -0.016249 8.765756 -6.101895 -23.977391 -8.118440 -17.432087 53.342411 -1.586144 -2.023175 -1.141432 -0.431300 4.214300 -11.680400 2.437098 0.682602 9.057489 1.371477 1.363719 -3.730422 3.220858 0.450421 -1.635586 -8.854826 -7.309956 -16.305330 5.786211 -8.101563 7.471829 3.589900 -3.913000 10.111700 0.438234 -8.152814 0.264326 -45.142326 -43.024708 4.812088 69.245407 -47.077400 -52.367710 0.683148 -2.259400 28.705995 -7.553599 8.312056 -1.608700 -7.125000 0.000000 0.000000 -30.376700 38.059900 5.857100 -0.076789 8.513276 -3.401442 28.225499 44.617263 1.388663 -57.239697 44.937809 -39.477918 -0.935732 2.653298 12.745856 9.165671 -4.984371 -1.385000 7.125000 0.000000 0.000000 30.512300 -35.676100 7.951500 
5.622708 16.809983 17.759778 -4.304295 -3.231191 -0.760702 -5.693531 -3.084024 0.004175 -0.720216 7.989016 -23.304471 7.602343 16.596034 50.528389 4.381059 -4.376026 0.892780 0.535600 -4.689200 -13.024300 6.535136 3.649081 -0.013295 8.764268 -6.111989 -23.967138 -8.114612 -17.430192 53.331061 -1.593234 -2.011155 -1.135562 -0.430900 4.212500 -11.675400 2.438107 0.684342 9.057824 1.371611 1.366159 -3.730055 3.223858 0.451698 -1.638668 -8.860148 -7.308438 -16.282879 5.793373 -8.100930 7.471831 3.598000 -3.912900 10.105500 0.436609 -8.148129 0.267230 -45.165697 -43.020589 4.842817 69.252174 -47.082198 -52.368398 0.682631 -2.258612 28.703406 -7.551805 8.313509 -1.608400 -7.125000 0.000000 0.000000 -30.375000 38.061100 5.855700 -0.076414 8.508561 -3.396219 28.245113 44.615013 1.409879 -57.244793 44.939050 -39.478783 -0.935291 2.651955 12.729287 9.152708 -4.980062 -1.382100 7.125000 0.000000 0.000000 30.499900 -35.672800 7.950200 
5.624019 16.810420 17.760980 -4.310270 -3.234797 -0.761049 -5.694958 -3.083068 0.005431 -0.718727 7.984654 -23.296475 7.600888 16.595593 50.524718 4.375064 -4.362144 0.887809 0.535400 -4.688600 -13.022500 6.535926 3.648064 -0.011609 8.764747 -6.118233 -23.962415 -8.110994 -17.428245 53.320811 -1.597988 -2.002936 -1.128194 -0.430900 4.212600 -11.675500 2.440717 0.686383 9.056994 1.372000 1.369176 -3.729954 3.227032 0.453197 -1.640157 -8.864213 -7.308181 -16.268559 5.797049 -8.101274 7.473657 3.602300 -3.913400 10.103100 0.435868 -8.144219 0.269848 -45.188615 -43.018097 4.868917 69.256893 -47.085520 -52.367583 0.682087 -2.257621 28.703722 -7.543153 8.311091 -1.606200 -7.125000 0.000000 0.000000 -30.366700 38.059400 5.855200 -0.075878 8.504551 -3.392850 28.261146 44.614208 1.429477 -57.251672 44.940692 -39.481410 -0.934808 2.650657 12.711758 9.138817 -4.976579 -1.379300 7.125000 0.000000 0.000000 30.487100 -35.670400 7.948000 
5.625440 16.810857 17.761636 -4.317012 -3.239356 -0.756308 -5.696070 -3.083615 0.005232 -0.717529 7.977782 -23.294440 7.599830 16.595225 50.522629 4.367815 -4.346110 0.885904 0.535600 -4.689300 -13.024400 6.536690 3.648393 -0.011353 8.766148 -6.120410 -23.963477 -8.107679 -17.426323 53.311423 -1.600973 -1.997502 -1.118887 -0.430900 4.212400 -11.675000 2.445887 0.688367 9.053116 1.372367 1.372050 -3.730010 3.228090 0.454644 -1.638669 -8.864496 -7.309813 -16.263335 5.795858 -8.104298 7.477984 3.601100 -3.915300 10.104800 0.436164 -8.141280 0.271489 -45.206666 -43.017678 4.886857 69.258709 -47.087216 -52.365200 0.681674 -2.256733 28.703805 -7.533641 8.306131 -1.603500 -7.125000 0.000000 0.000000 -30.356700 38.055500 5.856100 -0.075360 8.501212 -3.391343 28.275070 44.616070 1.447415 -57.263486 44.943443 -39.489075 -0.934243 2.649809 12.696892 9.130889 -4.979212 -1.378500 7.125000 0.000000 0.000000 30.481000 -35.673200 7.943500 
5.626970 16.811185 17.761854 -4.327334 -3.244752 -0.747669 -5.696412 -3.085122 0.003604 -0.713486 7.969307 -23.297331 7.599921 16.595250 50.522477 4.358437 -4.326072 0.885122 0.535800 -4.690100 -13.026900 6.537674 3.649904 -0.012018 8.771775 -6.118887 -23.968993 -8.104376 -17.424516 53.302740 -1.600831 -1.997494 -1.109884 -0.431200 4.214100 -11.679700 2.455705 0.690339 9.047865 1.373033 1.375277 -3.730246 3.227809 0.456172 -1.635830 -8.862178 -7.312349 -16.264348 5.791440 -8.108400 7.483033 3.596400 -3.917700 10.108600 0.437306 -8.139294 0.272620 -45.221453 -43.018362 4.899533 69.258846 -47.087922 -52.362092 0.681376 -2.255998 28.703013 -7.526678 8.300771 -1.601200 -7.125000 0.000000 0.000000 -30.348800 38.051100 5.857900 -0.074622 8.498534 -3.391327 28.286029 44.619398 1.463417 -57.277028 44.946655 -39.498738 -0.933636 2.649360 12.690128 9.127473 -4.985161 -1.379000 7.125000 0.000000 0.000000 30.479800 -35.678700 7.938400 
5.628390 16.811513 17.761854 -4.340043 -3.250269 -0.737467 -5.696449 -3.086867 0.001369 -0.707041 7.959231 -23.300934 7.600181 16.595111 50.522601 4.349062 -4.305920 0.885679 0.535500 -4.688900 -13.023400 6.539128 3.651864 -0.012924 8.780167 -6.114860 -23.974899 -8.100485 -17.422638 53.293320 -1.599589 -1.999360 -1.102459 -0.431500 4.215700 -11.684400 2.468855 0.692450 9.042222 1.373790 1.378967 -3.730233 3.226685 0.457895 -1.631694 -8.860365 -7.315598 -16.266514 5.787306 -8.113262 7.487379 3.592100 -3.920400 10.112200 0.438485 -8.137615 0.273688 -45.233871 -43.018817 4.911025 69.257058 -47.088278 -52.356964 0.681072 -2.255387 28.699742 -7.519234 8.296629 -1.599100 -7.125000 0.000000 0.000000 -30.340900 38.048000 5.858600 -0.074052 8.496146 -3.391794 28.294577 44.623089 1.476501 -57.291509 44.950440 -39.510196 -0.932963 2.649346 12.692272 9.128951 -4.995307 -1.381000 7.125000 0.000000 0.000000 30.484200 -35.687600 7.932100 
5.630030 16.811841 17.761745 -4.356133 -3.257173 -0.725097 -5.695969 -3.088945 -0.001644 -0.697941 7.948746 -23.306402 7.600757 16.594913 50.522691 4.339239 -4.285035 0.887746 0.535000 -4.686900 -13.017700 6.541128 3.654476 -0.014264 8.791865 -6.107873 -23.982121 -8.095840 -17.420447 53.282321 -1.596339 -2.004672 -1.094642 -0.432100 4.218500 -11.692300 2.487127 0.695070 9.035454 1.374537 1.383699 -3.729946 3.223075 0.460132 -1.625493 -8.857114 -7.320152 -16.271958 5.782249 -8.119897 7.490587 3.586600 -3.923800 10.115800 0.440111 -8.136571 0.274439 -45.242927 -43.021088 4.919214 69.254841 -47.088175 -52.351956 0.680895 -2.254990 28.695249 -7.516806 8.292935 -1.598000 -7.125000 0.000000 0.000000 -30.337200 38.044900 5.860300 -0.073727 8.494235 -3.393200 28.299471 44.627458 1.482623 -57.312026 44.956393 -39.530287 -0.932488 2.649950 12.704281 9.142175 -5.010542 -1.385700 7.125000 0.000000 0.000000 30.499500 -35.700200 7.926400 
